<svg width="124" height="120" viewBox="0 0 124 120" fill="none" xmlns="http://www.w3.org/2000/svg">
<path d="M0 120V0H63.0812C74.5143 0 84.3816 1.62109 92.6831 4.86328C101.034 8.06641 107.472 12.6758 111.995 18.6914C116.519 24.668 118.78 31.7578 118.78 39.9609C118.78 48.2812 116.469 55.3516 111.846 61.1719C107.223 66.9531 100.661 71.3672 92.1611 74.4141C83.6609 77.4219 71.2746 79.2724 61.9627 78.9258C52.1787 78.9258 36.9092 78.9258 36.9092 78.9258C36.9092 78.9258 62.5084 71.9041 65.7655 62.5195C68.0024 56.0742 74.8143 58.4874 77.6212 53.496C80.3784 48.5928 80.5292 43.6719 80.5292 39.9609C80.5292 36.25 79.5598 33.1836 77.6212 30.7617C75.6825 28.3008 72.8242 26.4648 69.0463 25.2539C65.2684 24.0039 60.6206 23.3789 55.1028 23.3789H36.9092V120H0ZM92.1611 74.4141L124 120H83.7354C83.7354 120 70.4655 94.9663 61.9627 78.9258L92.1611 74.4141Z" fill="url(#paint0_linear_5_5)"/>
<defs>
<linearGradient id="paint0_linear_5_5" x1="0" y1="0" x2="124" y2="120" gradientUnits="userSpaceOnUse">
<stop stop-color="#4F46E5"/>
<stop offset="1" stop-color="#182E9F"/>
</linearGradient>
</defs>
</svg>
